<svg width="384" height="1078" viewBox="0 0 384 1078" fill="none" xmlns="http://www.w3.org/2000/svg">
<g opacity="0.4">
<path d="M-418.788 260.139C-369.772 211.847 -289.186 221.049 -228.295 204.246C-165.447 186.933 -98.0098 138.007 -36.323 154.424C23.4649 170.28 54.0759 244.102 99.7982 291.685C145.488 339.305 217.479 372.335 231.498 433.349C245.972 496.286 195.853 563.225 177.056 626.439C158.858 687.674 165.728 769.57 116.713 817.862C67.6977 866.153 -12.8891 856.951 -73.7798 873.754C-136.627 891.068 -204.065 939.993 -265.752 923.576C-325.54 907.721 -356.151 833.898 -401.873 786.315C-447.563 738.695 -519.554 705.665 -533.573 644.651C-548.047 581.714 -497.928 514.775 -479.131 451.561C-460.933 390.326 -467.803 308.43 -418.788 260.139Z" stroke="#626A48" stroke-linecap="round" stroke-linejoin="round"/>
<path d="M-337.765 233.435C-285.148 199.115 -214.122 226.759 -156.821 223.271C-97.6839 219.697 -27.6253 184.481 24.1794 211.177C74.3471 237.014 85.0117 312.705 116.701 364.599C148.423 416.456 209.979 458.936 210.981 516.874C212.025 576.632 151.07 626.793 122.521 680.36C94.8579 732.27 88.4147 810.342 35.7625 844.63C-16.8896 878.919 -87.8807 851.306 -145.182 854.794C-204.319 858.368 -274.377 893.584 -326.182 866.888C-376.35 841.051 -387.014 765.36 -418.704 713.466C-450.426 661.609 -511.982 619.128 -512.984 561.19C-514.028 501.433 -453.072 451.272 -424.524 397.705C-396.86 345.795 -390.417 267.723 -337.765 233.435Z" stroke="#626A48" stroke-linecap="round" stroke-linejoin="round"/>
</g>
</svg>
