<svg width="425" height="964" viewBox="0 0 425 964" fill="none" xmlns="http://www.w3.org/2000/svg">
<g opacity="0.4">
<path d="M267.212 232.629C316.228 189.444 396.814 197.673 457.705 182.647C520.553 167.164 587.99 123.413 649.677 138.094C709.465 152.272 740.076 218.288 785.798 260.839C831.488 303.423 903.479 332.96 917.498 387.521C931.972 443.803 881.853 503.663 863.056 560.192C844.858 614.952 851.728 688.187 802.713 731.372C753.698 774.556 673.111 766.327 612.22 781.353C549.373 796.836 481.935 840.587 420.248 825.906C360.46 811.728 329.849 745.712 284.127 703.161C238.437 660.577 166.446 631.04 152.427 576.479C137.953 520.197 188.072 460.337 206.869 403.808C225.067 349.048 218.197 275.813 267.212 232.629Z" stroke="#626A48" stroke-linecap="round" stroke-linejoin="round"/>
<path d="M348.235 208.749C400.852 178.058 471.878 202.779 529.179 199.66C588.316 196.463 658.375 164.972 710.179 188.844C760.347 211.949 771.012 279.636 802.701 326.042C834.423 372.415 895.979 410.403 896.981 462.214C898.025 515.652 837.069 560.509 808.521 608.411C780.858 654.831 774.415 724.647 721.762 755.309C669.11 785.972 598.119 761.279 540.818 764.398C481.681 767.595 411.623 799.086 359.818 775.213C309.65 752.109 298.986 684.422 267.296 638.016C235.574 591.643 174.018 553.655 173.016 501.844C171.972 448.406 232.928 403.549 261.476 355.647C289.14 309.226 295.583 239.411 348.235 208.749Z" stroke="#626A48" stroke-linecap="round" stroke-linejoin="round"/>
</g>
</svg>
